<svg id="Logo" xmlns="http://www.w3.org/2000/svg" width="35" height="35" viewBox="0 0 35 35">
  <g id="invisible_box" data-name="invisible box">
    <rect id="Rectángulo_4" data-name="Rectángulo 4" width="35" height="35" fill="none"/>
  </g>
  <g id="icons_Q2" data-name="icons Q2" transform="translate(2.916 2.188)">
    <path id="Trazado_4" data-name="Trazado 4" d="M32.364,9.708,19.239,3.146,18.583,3l-.656.146L4.8,9.708a.073.073,0,0,0-.073.073l13.854,7,13.854-7A.073.073,0,0,0,32.364,9.708ZM20.041,19.333V33.042l12.323-6.271a1.385,1.385,0,0,0,.8-1.312V12.7ZM4,12.7v12.76a1.385,1.385,0,0,0,.8,1.312l12.323,6.271V19.333Z" transform="translate(-3.998 -3)" fill="#fff"/>
  </g>
</svg>
